<svg xmlns="http://www.w3.org/2000/svg" viewBox="0 0 64 64">
  <defs>
    <linearGradient id="g" x1="0%" y1="0%" x2="100%" y2="100%">
      <stop offset="0%" stop-color="#2563eb" />
      <stop offset="100%" stop-color="#06b6d4" />
    </linearGradient>
  </defs>
  <rect x="4" y="4" width="56" height="56" rx="14" fill="url(#g)" />
  <path
    d="M18 22h28c1.1 0 2 .9 2 2v6c0 1.1-.9 2-2 2H18c-1.1 0-2-.9-2-2v-6c0-1.1.9-2 2-2zm0 14h18c1.1 0 2 .9 2 2v6c0 1.1-.9 2-2 2H18c-1.1 0-2-.9-2-2v-6c0-1.1.9-2 2-2zm24 1.5 6 6 2.5-2.5"
    fill="none"
    stroke="#ffffff"
    stroke-width="4"
    stroke-linecap="round"
    stroke-linejoin="round"
  />
</svg>
